<svg width="30" height="30" viewBox="0 0 30 30" fill="none" xmlns="http://www.w3.org/2000/svg">
<path d="M18.75 26.2496V16.2496C18.75 15.9181 18.6183 15.6002 18.3839 15.3657C18.1495 15.1313 17.8315 14.9996 17.5 14.9996H12.5C12.1685 14.9996 11.8505 15.1313 11.6161 15.3657C11.3817 15.6002 11.25 15.9181 11.25 16.2496V26.2496M3.75 12.4996C3.74991 12.136 3.82917 11.7767 3.98223 11.4468C4.1353 11.1169 4.3585 10.8244 4.63625 10.5896L13.3862 3.08962C13.8375 2.70826 14.4092 2.49902 15 2.49902C15.5908 2.49902 16.1625 2.70826 16.6138 3.08962L25.3638 10.5896C25.6415 10.8244 25.8647 11.1169 26.0178 11.4468C26.1708 11.7767 26.2501 12.136 26.25 12.4996V23.7496C26.25 24.4127 25.9866 25.0485 25.5178 25.5174C25.0489 25.9862 24.413 26.2496 23.75 26.2496H6.25C5.58696 26.2496 4.95107 25.9862 4.48223 25.5174C4.01339 25.0485 3.75 24.4127 3.75 23.7496V12.4996Z" stroke="white" stroke-width="2" stroke-linecap="round" stroke-linejoin="round"/>
</svg>
