<svg width="64" height="60" viewBox="0 0 64 60" fill="none" xmlns="http://www.w3.org/2000/svg">
<path d="M31.9995 21.2355C26.1657 21.2355 21.4194 16.4726 21.4194 10.6183C21.4194 4.76394 26.1657 0 31.9995 0C37.8333 0 42.5796 4.76293 42.5796 10.6172C42.5796 16.4716 37.8333 21.2345 31.9995 21.2345V21.2355ZM31.9995 2.53378C27.5578 2.53378 23.9443 6.15994 23.9443 10.6172C23.9443 15.0746 27.5578 18.7007 31.9995 18.7007C36.4412 18.7007 40.0547 15.0746 40.0547 10.6172C40.0547 6.15994 36.4412 2.53378 31.9995 2.53378Z" fill="#DDD5CF"/>
<path d="M1.65948 59.0646L0 57.1552C8.88841 49.3784 20.2856 45.0966 32.091 45.0966C43.8963 45.0966 55.1407 49.3229 64 56.9969L62.3496 58.9153C53.9486 51.6378 43.2027 47.6303 32.091 47.6303C20.9792 47.6303 10.0875 51.6913 1.65948 59.0656V59.0646Z" fill="#DDD5CF"/>
<path d="M31.9995 39.1071C20.9651 39.1071 11.9883 30.0987 11.9883 19.0255H14.5132C14.5132 28.7017 22.3572 36.5733 31.9995 36.5733C41.6418 36.5733 49.4858 28.7017 49.4858 19.0255H52.0107C52.0107 30.0987 43.0339 39.1071 31.9995 39.1071Z" fill="#DDD5CF"/>
</svg>
