<svg width="18" height="20" viewBox="0 0 18 20" fill="none" xmlns="http://www.w3.org/2000/svg">
<path d="M0.75 2.75059C0.749896 2.39868 0.842645 2.05298 1.01888 1.74838C1.19512 1.44379 1.44861 1.19108 1.75375 1.01579C2.05889 0.840495 2.40488 0.748817 2.75679 0.750012C3.1087 0.751206 3.45406 0.845231 3.758 1.02259L15.755 8.02059C16.0578 8.19627 16.3091 8.44834 16.4839 8.7516C16.6588 9.05486 16.7509 9.39869 16.7512 9.74873C16.7515 10.0988 16.66 10.4428 16.4857 10.7463C16.3114 11.0499 16.0605 11.3024 15.758 11.4786L3.758 18.4786C3.45406 18.656 3.1087 18.75 2.75679 18.7512C2.40488 18.7524 2.05889 18.6607 1.75375 18.4854C1.44861 18.3101 1.19512 18.0574 1.01888 17.7528C0.842645 17.4482 0.749896 17.1025 0.75 16.7506V2.75059Z" stroke="white" stroke-width="1.5" stroke-linecap="round" stroke-linejoin="round"/>
</svg>
