<svg width="47" height="47" viewBox="0 0 47 47" fill="none" xmlns="http://www.w3.org/2000/svg">
<rect width="47" height="47" rx="23.5" fill="#6B8560"/>
<path d="M19.2449 19.2452C19.2448 19.0313 19.3012 18.8212 19.4083 18.6361C19.5154 18.451 19.6695 18.2974 19.8549 18.1908C20.0404 18.0843 20.2506 18.0286 20.4645 18.0293C20.6784 18.03 20.8883 18.0872 21.073 18.195L28.3643 22.4481C28.5483 22.5548 28.7011 22.708 28.8073 22.8923C28.9136 23.0766 28.9696 23.2856 28.9698 23.4984C28.9699 23.7111 28.9143 23.9202 28.8084 24.1046C28.7024 24.2891 28.5499 24.4426 28.3661 24.5497L21.073 28.804C20.8883 28.9118 20.6784 28.9689 20.4645 28.9697C20.2506 28.9704 20.0404 28.9147 19.8549 28.8081C19.6695 28.7016 19.5154 28.548 19.4083 28.3629C19.3012 28.1778 19.2448 27.9677 19.2449 27.7538V19.2452Z" stroke="white" stroke-width="1.21552" stroke-linecap="round" stroke-linejoin="round"/>
</svg>
